<svg
        width="578"
        height="188"
        viewBox="0 0 578 188"
        fill="black"
        xmlns="http://www.w3.org/2000/svg"
        >
<path
fill-rule="evenodd"
clip-rule="evenodd"
d="M41.5 34C37.0817 34 33.5 37.5817 33.5 42V146C33.5 150.418 37.0817 154 41.5 154H158.5C162.918 154 166.5 150.418 166.5 146V42C166.5 37.5817 162.918 34 158.5 34H41.5ZM123.434 113.942C124.126 111.752 124.5 109.42 124.5 107C124.5 94.2975 114.203 84 101.5 84C99.1907 84 96.9608 84.3403 94.8579 84.9736L87.2208 65.1172C90.9181 63.4922 93.5 59.7976 93.5 55.5C93.5 49.701 88.799 45 83 45C77.201 45 72.5 49.701 72.5 55.5C72.5 61.299 77.201 66 83 66C83.4453 66 83.8841 65.9723 84.3148 65.9185L92.0483 86.0256C87.1368 88.2423 83.1434 92.1335 80.7957 96.9714L65.4253 91.1648C65.4746 90.7835 65.5 90.3947 65.5 90C65.5 85.0294 61.4706 81 56.5 81C51.5294 81 47.5 85.0294 47.5 90C47.5 94.9706 51.5294 99 56.5 99C60.0181 99 63.0648 96.9814 64.5449 94.0392L79.6655 99.7514C78.9094 102.03 78.5 104.467 78.5 107C78.5 110.387 79.2321 113.603 80.5466 116.498L69.0273 123.731C67.1012 121.449 64.2199 120 61 120C55.201 120 50.5 124.701 50.5 130.5C50.5 136.299 55.201 141 61 141C66.799 141 71.5 136.299 71.5 130.5C71.5 128.997 71.1844 127.569 70.6158 126.276L81.9667 119.149C86.0275 125.664 93.2574 130 101.5 130C110.722 130 118.677 124.572 122.343 116.737L132.747 120.899C132.585 121.573 132.5 122.276 132.5 123C132.5 127.971 136.529 132 141.5 132C146.471 132 150.5 127.971 150.5 123C150.5 118.029 146.471 114 141.5 114C138.32 114 135.525 115.649 133.925 118.139L123.434 113.942Z"
/>
<path d="M243.9 151.5C240.4 151.5 237 151 233.7 150C230.4 149 227.4 147.65 224.7 145.95C222 144.15 219.75 142.15 217.95 139.95C216.15 137.65 215 135.3 214.5 132.9L219.3 131.1L218.25 149.7H198.15V39H219.45V89.25L215.4 87.6C216 85.2 217.15 82.9 218.85 80.7C220.55 78.4 222.7 76.4 225.3 74.7C227.9 72.9 230.75 71.5 233.85 70.5C236.95 69.5 240.15 69 243.45 69C250.35 69 256.5 70.8 261.9 74.4C267.3 77.9 271.55 82.75 274.65 88.95C277.85 95.15 279.45 102.25 279.45 110.25C279.45 118.25 277.9 125.35 274.8 131.55C271.7 137.75 267.45 142.65 262.05 146.25C256.75 149.75 250.7 151.5 243.9 151.5ZM238.8 133.35C242.8 133.35 246.25 132.4 249.15 130.5C252.15 128.5 254.5 125.8 256.2 122.4C257.9 118.9 258.75 114.85 258.75 110.25C258.75 105.75 257.9 101.75 256.2 98.25C254.6 94.75 252.3 92.05 249.3 90.15C246.3 88.25 242.8 87.3 238.8 87.3C234.8 87.3 231.3 88.25 228.3 90.15C225.3 92.05 222.95 94.75 221.25 98.25C219.55 101.75 218.7 105.75 218.7 110.25C218.7 114.85 219.55 118.9 221.25 122.4C222.95 125.8 225.3 128.5 228.3 130.5C231.3 132.4 234.8 133.35 238.8 133.35ZM308.312 126.15L302.012 108.6L339.512 70.65H367.562L308.312 126.15ZM288.062 150V39H309.362V150H288.062ZM341.762 150L313.262 114.15L328.262 102.15L367.412 150H341.762ZM371.675 150V70.65H392.075L392.675 86.85L388.475 88.65C389.575 85.05 391.525 81.8 394.325 78.9C397.225 75.9 400.675 73.5 404.675 71.7C408.675 69.9 412.875 69 417.275 69C423.275 69 428.275 70.2 432.275 72.6C436.375 75 439.425 78.65 441.425 83.55C443.525 88.35 444.575 94.3 444.575 101.4V150H423.275V103.05C423.275 99.45 422.775 96.45 421.775 94.05C420.775 91.65 419.225 89.9 417.125 88.8C415.125 87.6 412.625 87.1 409.625 87.3C407.225 87.3 404.975 87.7 402.875 88.5C400.875 89.2 399.125 90.25 397.625 91.65C396.225 93.05 395.075 94.65 394.175 96.45C393.375 98.25 392.975 100.2 392.975 102.3V150H382.475C380.175 150 378.125 150 376.325 150C374.525 150 372.975 150 371.675 150ZM488.536 151.5C481.636 151.5 475.436 149.75 469.936 146.25C464.436 142.65 460.086 137.8 456.886 131.7C453.786 125.5 452.236 118.35 452.236 110.25C452.236 102.35 453.786 95.3 456.886 89.1C460.086 82.9 464.386 78 469.786 74.4C475.286 70.8 481.536 69 488.536 69C492.236 69 495.786 69.6 499.186 70.8C502.686 71.9 505.786 73.45 508.486 75.45C511.286 77.45 513.536 79.7 515.236 82.2C516.936 84.6 517.886 87.15 518.086 89.85L512.686 90.75V39H533.986V150H513.886L512.986 131.7L517.186 132.15C516.986 134.65 516.086 137.05 514.486 139.35C512.886 141.65 510.736 143.75 508.036 145.65C505.436 147.45 502.436 148.9 499.036 150C495.736 151 492.236 151.5 488.536 151.5ZM493.336 133.8C497.336 133.8 500.836 132.8 503.836 130.8C506.836 128.8 509.186 126.05 510.886 122.55C512.586 119.05 513.436 114.95 513.436 110.25C513.436 105.65 512.586 101.6 510.886 98.1C509.186 94.5 506.836 91.75 503.836 89.85C500.836 87.85 497.336 86.85 493.336 86.85C489.336 86.85 485.836 87.85 482.836 89.85C479.936 91.75 477.636 94.5 475.936 98.1C474.336 101.6 473.536 105.65 473.536 110.25C473.536 114.95 474.336 119.05 475.936 122.55C477.636 126.05 479.936 128.8 482.836 130.8C485.836 132.8 489.336 133.8 493.336 133.8Z" />
        </svg>