<svg xmlns="http://www.w3.org/2000/svg" fill="none" viewBox="0 0 278 278"><circle cx="139" cy="139" r="139" fill="#C8B09B"/><path fill="#fff" d="M250.863 84c.32 0 .481.48.481 1.44s-.161 1.44-.481 1.44c-5.76 0-11.04 2.16-15.84 6.48-4.799 4.32-8.8 10.56-12 18.72l-46.559 121.68c-.16.64-1.04.96-2.64.96s-2.48-.32-2.64-.96l-30.945-66.169-25.216 66.169c-.16.64-1.039.96-2.639.96-1.6 0-2.48-.32-2.64-.96l-60.72-129.84c-3.36-7.04-6.24-11.6-8.64-13.68-2.24-2.24-5.68-3.36-10.32-3.36-.48 0-.72-.48-.72-1.44s.24-1.44.72-1.44l6.24.24c3.84.32 7.84.48 12 .48 9.12 0 17.2-.16 24.24-.48 2.24-.16 5.04-.24 8.4-.24.48 0 .72.48.72 1.44s-.24 1.44-.72 1.44c-4.16 0-7.2.48-9.12 1.44-1.92.8-2.88 2.32-2.88 4.56 0 2.4 1.52 6.88 4.56 13.44l45.87 97.934 17.154-44.599-26.064-55.735c-2.72-5.76-5.36-10-7.92-12.72-2.56-2.88-5.52-4.32-8.88-4.32-.48 0-.72-.48-.72-1.44s.24-1.44.72-1.44l5.76.24c3.52.32 7.04.48 10.559.48 7.52 0 14.16-.16 19.92-.48 1.6-.16 3.681-.24 6.241-.24.48 0 .719.48.719 1.44s-.24 1.44-.719 1.44c-2.4 0-4.161.32-5.281.96-1.119.48-1.679 1.52-1.679 3.12 0 1.28.48 3.28 1.44 6 1.12 2.72 2.48 5.84 4.08 9.36l13.095 27.681 8.745-22.881c2.88-7.52 4.319-13.2 4.319-17.04 0-4.8-2.399-7.2-7.199-7.2-.48 0-.721-.48-.721-1.44s.241-1.44.721-1.44c1.44 0 3.12.16 5.04.48 1.92.16 5.44.24 10.56.24 2.88 0 6.24-.16 10.08-.48l9.36-.24c.32 0 .48.48.48 1.44s-.16 1.44-.48 1.44c-5.44 0-10.24 2-14.4 6s-7.921 10.4-11.281 19.2l-11.492 29.812 29.498 62.353 35.034-91.445c1.6-4.16 2.401-8.08 2.401-11.76 0-4.48-1.36-7.92-4.08-10.32-2.56-2.56-6.24-3.84-11.04-3.84-.48 0-.72-.48-.72-1.44s.24-1.44.72-1.44l10.559.24c5.76.32 10.961.48 15.601.48 3.2 0 6.88-.16 11.04-.48l10.319-.24Z"/></svg>
