<svg xmlns="http://www.w3.org/2000/svg" fill="none" viewBox="0 0 2138 278"><circle cx="139" cy="139" r="139" fill="#C8B09B"/><path fill="#fff" d="M250.863 84c.32 0 .481.48.481 1.44s-.161 1.44-.481 1.44c-5.76 0-11.04 2.16-15.84 6.48-4.799 4.32-8.8 10.56-12 18.72l-46.559 121.68c-.16.64-1.04.96-2.64.96s-2.48-.32-2.64-.96l-30.945-66.169-25.216 66.169c-.16.64-1.039.96-2.639.96-1.6 0-2.48-.32-2.64-.96l-60.72-129.84c-3.36-7.04-6.24-11.6-8.64-13.68-2.24-2.24-5.68-3.36-10.32-3.36-.48 0-.72-.48-.72-1.44s.24-1.44.72-1.44l6.24.24c3.84.32 7.84.48 12 .48 9.12 0 17.2-.16 24.24-.48 2.24-.16 5.04-.24 8.4-.24.48 0 .72.48.72 1.44s-.24 1.44-.72 1.44c-4.16 0-7.2.48-9.12 1.44-1.92.8-2.88 2.32-2.88 4.56 0 2.4 1.52 6.88 4.56 13.44l45.87 97.934 17.154-44.599-26.064-55.735c-2.72-5.76-5.36-10-7.92-12.72-2.56-2.88-5.52-4.32-8.88-4.32-.48 0-.72-.48-.72-1.44s.24-1.44.72-1.44l5.76.24c3.52.32 7.04.48 10.559.48 7.52 0 14.16-.16 19.92-.48 1.6-.16 3.681-.24 6.241-.24.48 0 .719.48.719 1.44s-.24 1.44-.719 1.44c-2.4 0-4.161.32-5.281.96-1.119.48-1.679 1.52-1.679 3.12 0 1.28.48 3.28 1.44 6 1.12 2.72 2.48 5.84 4.08 9.36l13.095 27.681 8.745-22.881c2.88-7.52 4.319-13.2 4.319-17.04 0-4.8-2.399-7.2-7.199-7.2-.48 0-.721-.48-.721-1.44s.241-1.44.721-1.44c1.44 0 3.12.16 5.04.48 1.92.16 5.44.24 10.56.24 2.88 0 6.24-.16 10.08-.48l9.36-.24c.32 0 .48.48.48 1.44s-.16 1.44-.48 1.44c-5.44 0-10.24 2-14.4 6s-7.921 10.4-11.281 19.2l-11.492 29.812 29.498 62.353 35.034-91.445c1.6-4.16 2.401-8.08 2.401-11.76 0-4.48-1.36-7.92-4.08-10.32-2.56-2.56-6.24-3.84-11.04-3.84-.48 0-.72-.48-.72-1.44s.24-1.44.72-1.44l10.559.24c5.76.32 10.961.48 15.601.48 3.2 0 6.88-.16 11.04-.48l10.319-.24Z"/><path fill="#423224" d="M1365.47 64c5.12 0 10.33.543 15.61 1.63 5.28.933 9.79 2.176 13.51 3.73 2.33.931 3.5 2.407 3.5 4.426l.47 31.457c0 .622-.39 1.01-1.17 1.165-.62.156-1.09 0-1.4-.466-3.1-9.475-7.3-18.02-12.58-25.631-5.13-7.767-12.89-11.65-23.3-11.65-6.99 0-12.58 2.096-16.78 6.29-4.04 4.04-6.06 9.477-6.06 16.312 0 5.747 1.4 10.874 4.2 15.379a49.724 49.724 0 0 0 10.72 11.418c4.19 3.106 9.94 6.99 17.24 11.65 7.92 4.971 14.14 9.243 18.64 12.816 4.66 3.573 8.62 8.001 11.88 13.283 3.27 5.126 4.9 11.184 4.9 18.174 0 7.923-2.1 14.991-6.29 21.205-4.04 6.213-9.87 11.107-17.48 14.68-7.46 3.418-16 5.126-25.63 5.126-6.53 0-13.28-.854-20.28-2.562-6.83-1.709-12.03-3.807-15.61-6.292-1.39-.932-2.17-2.409-2.33-4.428l-1.4-35.185v-.233c0-.621.39-.933 1.17-.933.78-.155 1.24.078 1.4.7 5.12 12.738 10.95 23.224 17.47 31.458 6.68 8.233 15.07 12.349 25.17 12.349 6.83 0 12.5-1.786 17.01-5.359 4.5-3.728 6.76-9.865 6.76-18.408 0-6.835-1.56-12.816-4.66-17.943-2.95-5.126-6.68-9.399-11.19-12.816-4.35-3.418-10.33-7.612-17.94-12.583-7.46-4.816-13.28-8.854-17.48-12.116-4.19-3.418-7.76-7.535-10.71-12.351-2.96-4.971-4.43-10.719-4.43-17.243 0-8.078 2.25-14.913 6.76-20.505 4.5-5.593 10.33-9.709 17.47-12.35 7.3-2.796 14.92-4.194 22.84-4.194Zm238.33 0c14.76 0 27.73 3.495 38.92 10.485 11.18 6.835 19.73 15.923 25.63 27.263 6.06 11.34 9.09 23.38 9.09 36.118 0 14.136-3.73 27.107-11.19 38.913-7.45 11.806-17.47 21.127-30.06 27.962-12.42 6.835-25.94 10.253-40.54 10.253-14.45 0-27.34-3.34-38.68-10.019-11.19-6.836-19.89-16.001-26.1-27.496-6.06-11.651-9.09-24.312-9.09-37.982 0-16 4.04-29.671 12.12-41.01 8.08-11.496 18.41-20.118 30.99-25.866 12.74-5.747 25.71-8.62 38.91-8.621Zm494.35 0c5.13 0 10.33.543 15.61 1.63 5.28.933 9.79 2.176 13.52 3.73 2.33.931 3.49 2.407 3.49 4.426l.47 31.457c0 .622-.39 1.01-1.17 1.165-.62.156-1.08 0-1.4-.466-3.1-9.475-7.3-18.02-12.58-25.631-5.12-7.767-12.89-11.65-23.3-11.65-6.99 0-12.58 2.096-16.78 6.29-4.04 4.04-6.05 9.477-6.05 16.312 0 5.747 1.39 10.874 4.19 15.379a49.724 49.724 0 0 0 10.72 11.418c4.19 3.106 9.94 6.99 17.24 11.65 7.92 4.971 14.14 9.243 18.64 12.816 4.66 3.573 8.62 8.001 11.89 13.283 3.26 5.126 4.89 11.184 4.89 18.174 0 7.923-2.1 14.991-6.29 21.205-4.04 6.213-9.87 11.107-17.48 14.68-7.45 3.418-16 5.126-25.63 5.126-6.52 0-13.28-.854-20.27-2.562-6.84-1.709-12.04-3.807-15.61-6.292-1.4-.932-2.18-2.409-2.33-4.428l-1.4-35.185v-.233c0-.621.39-.933 1.16-.933.78-.155 1.25.078 1.4.7 5.13 12.738 10.95 23.224 17.48 31.458 6.68 8.233 15.07 12.349 25.16 12.349 6.84 0 12.51-1.786 17.01-5.359 4.51-3.728 6.76-9.865 6.76-18.408 0-6.835-1.55-12.816-4.66-17.943-2.95-5.126-6.68-9.399-11.18-12.816-4.35-3.418-10.33-7.612-17.95-12.583-7.45-4.816-13.28-8.854-17.47-12.116-4.2-3.418-7.77-7.535-10.72-12.351-2.95-4.971-4.43-10.719-4.43-17.243 0-8.078 2.25-14.913 6.76-20.505 4.5-5.593 10.33-9.709 17.47-12.35 7.31-2.796 14.92-4.194 22.84-4.194ZM699.335 66.097c15.845 0 29.904 3.106 42.176 9.32 12.272 6.214 21.748 14.68 28.427 25.399 6.836 10.719 10.253 22.758 10.253 36.118 0 15.068-3.494 28.428-10.485 40.079-6.99 11.495-16.389 20.427-28.195 26.797-11.806 6.213-24.778 9.32-38.914 9.32-4.816 0-10.486-.232-17.01-.698-2.33-.156-5.282-.312-8.855-.467a276.023 276.023 0 0 0-11.883-.233l-16.545.233c-2.952.155-7.068.233-12.35.233-.311 0-.466-.466-.466-1.398 0-.932.155-1.398.466-1.398 5.282 0 9.088-.388 11.418-1.165 2.486-.776 4.194-2.253 5.126-4.427.932-2.331 1.398-5.826 1.398-10.486V85.437c0-4.66-.466-8.078-1.398-10.252-.777-2.175-2.407-3.651-4.893-4.428-2.485-.932-6.291-1.398-11.417-1.398-.311 0-.467-.466-.467-1.398 0-.932.156-1.398.467-1.398l12.349.233c6.835.31 12.273.466 16.312.466 6.058 0 12.349-.234 18.874-.7 7.767-.31 12.971-.465 15.612-.465Zm335.255.466c.46 0 .7.466.7 1.398 0 .932-.24 1.398-.7 1.398-5.44 0-10.49 2.097-15.15 6.291-4.66 4.195-8.46 10.254-11.41 18.176l-45.443 118.139c-.155.621-1.01.932-2.564.932-1.553 0-2.407-.311-2.562-.932L898.508 85.903c-2.796-5.747-5.593-9.942-8.389-12.583-2.796-2.64-6.137-3.96-10.02-3.96-.466 0-.699-.467-.699-1.4 0-.93.233-1.397.699-1.397l6.058.233a140.4 140.4 0 0 0 11.652.466c10.874 0 20.661-.155 29.36-.466 2.485-.155 5.592-.234 9.32-.234.466 0 .699.467.699 1.399 0 .932-.233 1.398-.699 1.398-4.66 0-8.233.854-10.718 2.563-2.486 1.709-3.729 4.195-3.729 7.457 0 2.796.777 5.748 2.33 8.854l43.143 93.438 34.215-88.777c1.4-3.729 2.1-7.069 2.1-10.02 0-4.35-1.48-7.69-4.427-10.02-2.796-2.33-6.99-3.495-12.583-3.495-.465 0-.698-.466-.698-1.398 0-.932.233-1.398.698-1.398l10.719.233c6.211.31 11.731.466 16.541.466 2.96 0 6.61-.155 10.96-.466l9.55-.234Zm-583.637-2.097c1.088 0 1.709.233 1.864.699l57.09 115.109c5.282 11.185 9.709 18.875 13.281 23.07 3.729 4.039 7.768 6.058 12.118 6.058.621 0 .931.466.931 1.398 0 .932-.31 1.398-.931 1.398-2.952 0-7.69-.155-14.214-.466-6.524-.31-11.262-.466-14.214-.466-3.884 0-8.467.156-13.748.466-5.282.311-9.399.466-12.351.466-.621 0-.931-.466-.931-1.398 0-.932.31-1.397.931-1.398 4.661 0 8.001-.466 10.021-1.398 2.019-1.087 3.028-2.796 3.028-5.126 0-2.33-1.32-6.292-3.961-11.885l-25.095-51.03h-42.293l-17.896 40.311c-2.019 4.661-3.029 8.855-3.029 12.583 0 5.437 1.942 9.555 5.826 12.351 3.883 2.796 9.32 4.194 16.31 4.194.777 0 1.165.466 1.165 1.398 0 .932-.388 1.398-1.165 1.398-2.796 0-6.834-.155-12.116-.466-5.903-.31-11.03-.466-15.38-.466-4.194 0-9.087.156-14.679.466-4.971.311-9.088.466-12.35.466-.777 0-1.165-.466-1.165-1.398 0-.932.388-1.398 1.165-1.398 4.349 0 8-.854 10.951-2.563 2.952-1.709 5.826-4.738 8.622-9.088 2.796-4.505 6.136-11.107 10.02-19.807l50.098-112.779c.311-.466 1.01-.7 2.097-.7Zm744.207 2.097c.47 0 .7.466.7 1.398 0 .932-.23 1.398-.7 1.398-5.12 0-8.93.466-11.41 1.398-2.49.932-4.2 2.563-5.13 4.893-.78 2.175-1.17 5.593-1.17 10.253v107.421c0 4.816.39 8.311 1.17 10.486.93 2.174 2.56 3.651 4.89 4.427 2.49.777 6.37 1.165 11.65 1.165.47 0 .7.466.7 1.398 0 .932-.23 1.398-.7 1.398-4.97 0-8.93-.078-11.88-.233l-17.24-.233-16.78.233c-2.95.155-6.99.233-12.12.233-.46 0-.7-.466-.7-1.398 0-.932.24-1.397.7-1.398 5.28 0 9.09-.388 11.42-1.165 2.49-.776 4.19-2.253 5.13-4.427.93-2.331 1.39-5.826 1.39-10.486V85.437c0-4.66-.46-8.078-1.39-10.252-.94-2.175-2.64-3.651-5.13-4.428-2.33-.932-6.14-1.398-11.42-1.398-.46 0-.7-.466-.7-1.398 0-.932.24-1.398.7-1.398l12.12.233c6.83.31 12.43.466 16.78.466 4.81 0 10.64-.155 17.47-.466l11.65-.234Zm655.55-.7c13.83 0 24.47 2.564 31.93 7.69 7.46 5.127 11.18 12.35 11.18 21.67 0 7.613-2.4 14.836-7.22 21.672-4.2 6.022-9.67 10.97-16.39 14.845 12.46 19.224 22.9 34.315 31.3 45.273 8.86 11.34 16.7 19.573 23.54 24.699 6.83 5.126 13.44 7.69 19.8 7.69.31.001.47.466.47 1.398 0 .931-.16 1.398-.47 1.398h-37.51c-3.73 0-10.64-6.758-20.74-20.272-9.54-12.975-21.09-30.818-34.64-53.528-2.63.421-5.3.633-8 .633-5.59 0-9.56-.078-11.89-.233v54.526c0 4.816.39 8.311 1.17 10.486.78 2.174 2.33 3.651 4.66 4.427 2.48.777 6.45 1.165 11.88 1.165.31 0 .47.466.47 1.398 0 .932-.16 1.398-.47 1.398-5.12 0-9.16-.078-12.11-.233l-17.01-.233-16.78.233c-2.95.155-6.99.233-12.12.233-.46 0-.7-.466-.7-1.398 0-.932.24-1.397.7-1.398 5.28 0 9.09-.388 11.42-1.165 2.49-.776 4.19-2.253 5.13-4.427.93-2.331 1.39-5.826 1.39-10.486V85.437c0-4.66-.46-8.078-1.39-10.252-.78-2.175-2.41-3.651-4.9-4.428-2.48-.932-6.29-1.398-11.41-1.398-.32 0-.47-.466-.47-1.398 0-.932.15-1.398.47-1.398l12.11.233c6.84.31 12.35.466 16.55.466 4.66 0 9.55-.234 14.68-.7 1.86-.155 4.11-.31 6.75-.465 2.64-.156 5.52-.234 8.62-.234Zm-256.46 4.195c-15.22 0-26.95 5.437-35.18 16.311-8.24 10.719-12.35 25.632-12.35 44.739 0 14.913 2.4 28.35 7.22 40.312 4.82 11.806 11.57 21.127 20.27 27.962 8.7 6.68 18.49 10.02 29.36 10.02 9.32 0 17.63-2.486 24.93-7.457 7.46-5.126 13.29-12.582 17.48-22.369 4.35-9.787 6.53-21.438 6.53-34.953 0-14.447-2.41-27.263-7.23-38.447-4.66-11.34-11.42-20.195-20.27-26.565-8.7-6.369-18.95-9.553-30.76-9.553Zm-892.585.699c-6.68 0-11.806.388-15.379 1.165-3.417.777-5.981 2.253-7.689 4.428-1.709 2.02-2.564 5.204-2.564 9.553v104.858c0 6.369 1.632 10.952 4.894 13.748 3.417 2.64 9.864 3.961 19.34 3.961 10.718 0 20.194-2.563 28.427-7.69 8.389-5.126 14.914-12.66 19.575-22.602 4.66-10.098 6.99-22.137 6.99-36.117 0-13.36-2.253-25.4-6.758-36.119-4.35-10.874-10.564-19.418-18.642-25.631-8.077-6.37-17.475-9.554-28.194-9.554Zm-276.496 63.147h36.624l-19.248-39.14-17.376 39.14ZM1846.75 70.291c-5.59 0-9.47 1.088-11.65 3.263-2.02 2.175-3.03 6.291-3.03 12.35v46.369c3.73.622 8.24.932 13.52.932 9.16 0 15.61-2.097 19.34-6.291 3.88-4.35 5.82-12.039 5.82-23.068 0-12.428-2.09-21.128-6.29-26.099-4.19-4.97-10.09-7.456-17.71-7.456Z"/></svg>
