<svg xmlns="http://www.w3.org/2000/svg" fill="none" viewBox="0 0 360 354"><g clip-path="url(#a)"><circle cx="179" cy="139" r="139" fill="#C8B09B"/><path fill="#fff" d="M290.863 84c.32 0 .481.48.481 1.44s-.161 1.44-.481 1.44c-5.76 0-11.04 2.16-15.84 6.48-4.799 4.32-8.8 10.56-12 18.72l-46.559 121.68c-.16.64-1.04.96-2.64.96s-2.48-.32-2.64-.96l-30.945-66.169-25.216 66.169c-.16.64-1.039.96-2.639.96-1.6 0-2.48-.32-2.64-.96l-60.72-129.84c-3.36-7.04-6.24-11.6-8.64-13.68-2.24-2.24-5.68-3.36-10.32-3.36-.48 0-.72-.48-.72-1.44s.24-1.44.72-1.44l6.24.24c3.84.32 7.84.48 12 .48 9.12 0 17.2-.16 24.24-.48 2.24-.16 5.04-.24 8.399-.24.48 0 .721.48.721 1.44s-.241 1.44-.721 1.44c-4.159 0-7.199.48-9.119 1.44-1.92.8-2.881 2.32-2.881 4.56 0 2.4 1.521 6.88 4.561 13.44l45.87 97.934 17.154-44.599-26.064-55.735c-2.72-5.76-5.36-10-7.92-12.72-2.56-2.88-5.52-4.32-8.88-4.32-.48 0-.721-.48-.721-1.44s.241-1.44.721-1.44l5.76.24c3.52.32 7.04.48 10.559.48 7.52 0 14.16-.16 19.92-.48 1.6-.16 3.681-.24 6.241-.24.48 0 .719.48.719 1.44s-.24 1.44-.719 1.44c-2.4 0-4.161.32-5.281.96-1.119.48-1.679 1.52-1.679 3.12 0 1.28.48 3.28 1.44 6 1.12 2.72 2.48 5.84 4.08 9.36l13.095 27.681 8.745-22.881c2.88-7.52 4.319-13.2 4.319-17.04 0-4.8-2.399-7.2-7.199-7.2-.48 0-.721-.48-.721-1.44s.241-1.44.721-1.44c1.44 0 3.12.16 5.04.48 1.92.16 5.44.24 10.56.24 2.88 0 6.24-.16 10.08-.48l9.36-.24c.32 0 .48.48.48 1.44s-.16 1.44-.48 1.44c-5.44 0-10.24 2-14.4 6s-7.921 10.4-11.281 19.2l-11.492 29.812 29.498 62.353 35.034-91.445c1.6-4.16 2.401-8.08 2.401-11.76 0-4.48-1.36-7.92-4.08-10.32-2.56-2.56-6.24-3.84-11.04-3.84-.48 0-.72-.48-.72-1.44s.24-1.44.72-1.44l10.559.24c5.76.32 10.961.48 15.601.48 3.2 0 6.88-.16 11.04-.48l10.319-.24Z"/><path fill="#423224" d="M198.15 327.56c.88 0 1.774.093 2.68.28.907.16 1.68.374 2.32.64.4.16.6.414.6.76l.08 5.4c0 .106-.067.173-.2.2-.107.026-.187 0-.24-.08-.534-1.627-1.253-3.093-2.16-4.4-.879-1.333-2.213-2-4-2-1.2 0-2.16.36-2.88 1.08-.693.694-1.04 1.627-1.04 2.8 0 .987.24 1.867.72 2.64.507.747 1.12 1.4 1.84 1.96.72.533 1.707 1.2 2.96 2 1.36.853 2.427 1.587 3.2 2.2.8.613 1.48 1.374 2.04 2.28.56.88.84 1.921.84 3.12 0 1.36-.36 2.574-1.08 3.64-.693 1.067-1.693 1.906-3 2.52-1.28.586-2.747.88-4.4.88-1.12 0-2.28-.147-3.48-.44-1.173-.293-2.066-.653-2.679-1.08-.24-.16-.374-.413-.401-.76l-.24-6.04v-.04c0-.107.067-.16.2-.16.133-.027.214.013.24.12.88 2.187 1.88 3.987 3 5.4 1.147 1.413 2.587 2.12 4.32 2.12 1.173 0 2.146-.307 2.92-.92.773-.64 1.16-1.694 1.16-3.16 0-1.173-.267-2.2-.8-3.08a7.303 7.303 0 0 0-1.92-2.2c-.747-.586-1.773-1.307-3.08-2.16-1.28-.827-2.28-1.52-3-2.08a8.314 8.314 0 0 1-1.84-2.12c-.507-.853-.76-1.84-.76-2.96 0-1.387.387-2.56 1.16-3.52.774-.96 1.774-1.666 3-2.12a10.87 10.87 0 0 1 3.92-.72Zm40.913 0c2.534 0 4.76.6 6.68 1.8 1.92 1.174 3.387 2.733 4.401 4.68a12.97 12.97 0 0 1 1.559 6.2c0 2.427-.64 4.653-1.92 6.68-1.28 2.027-3 3.626-5.16 4.8-2.133 1.173-4.453 1.76-6.96 1.76-2.48 0-4.693-.574-6.64-1.72a12.302 12.302 0 0 1-4.479-4.72c-1.04-2-1.561-4.174-1.561-6.52 0-2.747.694-5.093 2.08-7.04 1.387-1.973 3.161-3.453 5.321-4.44 2.186-.987 4.413-1.48 6.679-1.48Zm84.861 0c.88 0 1.773.093 2.68.28.906.16 1.68.374 2.32.64.4.16.599.414.599.76l.081 5.4c0 .106-.067.173-.201.2-.106.026-.187 0-.24-.08-.533-1.627-1.253-3.093-2.159-4.4-.88-1.333-2.214-2-4-2-1.2 0-2.161.36-2.881 1.08-.693.694-1.04 1.627-1.04 2.8 0 .987.241 1.867.721 2.64.506.747 1.12 1.4 1.84 1.96.72.533 1.706 1.2 2.96 2 1.36.853 2.426 1.587 3.2 2.2.8.613 1.48 1.374 2.04 2.28.56.88.84 1.921.84 3.12 0 1.36-.361 2.574-1.08 3.64-.694 1.067-1.694 1.906-3 2.52-1.28.586-2.748.88-4.401.88-1.12 0-2.28-.147-3.479-.44-1.174-.293-2.067-.653-2.68-1.08-.24-.16-.374-.413-.4-.76l-.241-6.04v-.04c0-.107.067-.16.201-.16.133-.027.213.013.24.12.88 2.187 1.88 3.987 3 5.4 1.146 1.413 2.586 2.12 4.319 2.12 1.173 0 2.147-.307 2.92-.92.773-.64 1.16-1.694 1.16-3.16 0-1.173-.266-2.2-.8-3.08a7.276 7.276 0 0 0-1.92-2.2c-.746-.586-1.773-1.307-3.08-2.16-1.28-.827-2.28-1.52-3-2.08a8.291 8.291 0 0 1-1.839-2.12c-.507-.853-.76-1.84-.76-2.96 0-1.387.387-2.56 1.16-3.52.773-.96 1.773-1.666 3-2.12 1.253-.48 2.56-.72 3.92-.72Zm-240.123.36c2.72 0 5.133.533 7.24 1.6 2.107 1.066 3.733 2.52 4.88 4.36 1.173 1.84 1.76 3.907 1.76 6.2 0 2.587-.6 4.88-1.8 6.88a12.543 12.543 0 0 1-4.84 4.6c-2.027 1.066-4.254 1.6-6.68 1.6-.827 0-1.8-.04-2.92-.12-.4-.027-.907-.053-1.52-.08a46.767 46.767 0 0 0-2.04-.04l-2.84.04c-.507.027-1.214.04-2.12.04-.053 0-.08-.08-.08-.24 0-.16.027-.24.08-.24.906 0 1.56-.066 1.96-.2.427-.133.72-.387.88-.76.16-.4.24-1.001.24-1.8v-18.52c0-.799-.08-1.386-.24-1.76-.134-.373-.413-.627-.84-.76-.427-.16-1.08-.24-1.96-.24-.053 0-.08-.08-.08-.24 0-.16.027-.24.08-.24l2.12.04c1.173.053 2.107.08 2.8.08 1.04 0 2.12-.04 3.24-.12a84.212 84.212 0 0 1 2.68-.08Zm57.55.08c.08 0 .12.08.12.24 0 .16-.04.24-.12.24-.934.001-1.8.36-2.6 1.08-.8.72-1.453 1.76-1.96 3.12l-7.8 20.28c-.026.107-.174.16-.44.16-.267 0-.413-.053-.44-.16l-10.12-21.64c-.48-.986-.96-1.707-1.44-2.16a2.419 2.419 0 0 0-1.72-.68c-.08 0-.12-.08-.12-.24 0-.16.04-.24.12-.24l1.04.04c.64.053 1.307.08 2 .08 1.867 0 3.547-.027 5.04-.08.427-.027.96-.04 1.6-.04.08 0 .12.08.12.24 0 .16-.04.24-.12.24-.8 0-1.413.147-1.84.44-.427.293-.64.72-.64 1.28 0 .48.133.987.4 1.52l7.406 16.039 5.874-15.239c.24-.64.36-1.214.36-1.72 0-.747-.254-1.32-.76-1.72-.48-.4-1.2-.599-2.16-.6-.08 0-.12-.08-.12-.24 0-.16.04-.24.12-.24l1.84.04c1.067.053 2.013.08 2.84.08.507 0 1.133-.027 1.88-.08l1.64-.04Zm-100.188-.36c.187 0 .294.04.32.12l9.8 19.76c.907 1.92 1.667 3.24 2.28 3.96.64.694 1.334 1.04 2.08 1.04.107 0 .16.08.16.24 0 .16-.053.24-.16.24-.506 0-1.32-.027-2.44-.08a58.298 58.298 0 0 0-2.44-.08c-.667 0-1.453.027-2.36.08-.906.053-1.613.08-2.12.08-.107 0-.16-.08-.16-.24 0-.16.054-.24.16-.24.8 0 1.373-.08 1.72-.24.346-.186.52-.48.52-.88s-.227-1.08-.68-2.04l-4.308-8.76h-7.26l-3.072 6.92c-.347.799-.52 1.52-.52 2.16 0 .933.334 1.64 1 2.12.667.48 1.6.72 2.8.72.134 0 .2.08.2.24 0 .16-.066.24-.2.24-.48 0-1.173-.027-2.08-.08a51.518 51.518 0 0 0-2.64-.08c-.72 0-1.56.027-2.52.08-.853.053-1.56.08-2.12.08-.133 0-.2-.08-.2-.24 0-.16.067-.24.2-.24.747 0 1.373-.147 1.88-.44.507-.293 1-.814 1.48-1.56.48-.774 1.054-1.907 1.72-3.4l8.6-19.36c.053-.08.174-.12.36-.12Zm127.752.36c.08 0 .12.08.12.24 0 .16-.04.24-.12.24-.88 0-1.533.08-1.96.24-.426.16-.72.44-.88.84-.133.373-.2.96-.2 1.76v18.44c0 .826.067 1.426.2 1.8.16.373.44.627.84.76.427.134 1.094.2 2 .2.08 0 .12.08.12.24 0 .16-.04.24-.12.24-.853 0-1.533-.013-2.04-.04l-2.96-.04-2.88.04c-.506.027-1.2.04-2.08.04-.08 0-.12-.08-.12-.24 0-.16.04-.24.12-.24.906 0 1.56-.066 1.96-.2.427-.133.72-.387.88-.76.16-.4.24-1 .24-1.8v-18.52c0-.8-.08-1.386-.24-1.76-.16-.373-.453-.627-.88-.76-.4-.16-1.054-.24-1.96-.24-.08 0-.12-.08-.12-.24 0-.16.04-.24.12-.24l2.08.04c1.173.053 2.133.08 2.88.08a68.1 68.1 0 0 0 3-.08l2-.04Zm112.533-.12c2.374 0 4.201.44 5.481 1.32 1.28.88 1.92 2.12 1.92 3.72 0 1.307-.414 2.546-1.241 3.72-.721 1.033-1.66 1.881-2.814 2.547 2.14 3.3 3.932 5.892 5.375 7.773 1.52 1.946 2.866 3.36 4.039 4.24 1.173.88 2.307 1.32 3.4 1.32.054 0 .08.08.08.24 0 .16-.026.24-.08.24h-6.439c-.64 0-1.827-1.16-3.561-3.48-1.638-2.228-3.619-5.291-5.946-9.189a8.702 8.702 0 0 1-1.374.109c-.96 0-1.64-.013-2.04-.04v9.36c0 .826.067 1.426.2 1.8.134.373.4.627.8.76.427.134 1.107.2 2.04.2.053 0 .08.08.08.24 0 .16-.027.24-.08.24-.88 0-1.573-.013-2.08-.04l-2.92-.04-2.88.04c-.506.027-1.2.04-2.08.04-.08 0-.12-.08-.12-.24 0-.16.04-.24.12-.24.906 0 1.56-.066 1.96-.2.427-.133.721-.387.881-.76.16-.4.239-1.001.239-1.8v-18.52c0-.799-.079-1.386-.239-1.76-.133-.373-.414-.627-.841-.76-.427-.16-1.08-.24-1.96-.24-.053 0-.08-.08-.08-.24 0-.159.027-.24.08-.24l2.08.04c1.173.053 2.12.08 2.84.08.8 0 1.641-.04 2.521-.12.32-.027.706-.053 1.16-.08.453-.027.946-.04 1.479-.04Zm-44.024.72c-2.614 0-4.627.934-6.04 2.8-1.413 1.84-2.12 4.4-2.12 7.68 0 2.56.413 4.867 1.24 6.92.827 2.027 1.986 3.627 3.479 4.8 1.494 1.146 3.174 1.72 5.04 1.72 1.6 0 3.027-.426 4.281-1.28 1.28-.88 2.28-2.16 3-3.84.746-1.68 1.12-3.68 1.12-6 0-2.48-.414-4.68-1.24-6.6-.8-1.947-1.961-3.466-3.481-4.56-1.493-1.093-3.253-1.64-5.279-1.64Zm-153.224.12c-1.146 0-2.026.067-2.64.2-.586.133-1.026.386-1.32.76-.293.346-.44.894-.44 1.64v18c0 1.093.28 1.88.84 2.36.587.453 1.694.68 3.32.68 1.84 0 3.468-.44 4.88-1.32 1.44-.88 2.56-2.173 3.36-3.88.8-1.733 1.2-3.8 1.2-6.2 0-2.293-.386-4.36-1.16-6.2-.746-1.867-1.813-3.333-3.199-4.4-1.387-1.093-3-1.64-4.84-1.64ZM4.87 339.6c1.092 0 2.04.4 2.839 1.2.8.8 1.2 1.746 1.2 2.84 0 1.119-.4 2.08-1.2 2.88-.773.773-1.72 1.16-2.84 1.16-1.147 0-2.12-.387-2.92-1.16-.8-.774-1.2-1.734-1.2-2.88 0-1.094.4-2.04 1.2-2.84.8-.8 1.774-1.2 2.92-1.2Zm350.327 0c1.093 0 2.04.4 2.84 1.2.8.8 1.2 1.746 1.2 2.84 0 1.119-.4 2.08-1.2 2.88-.773.773-1.72 1.16-2.84 1.16-1.146 0-2.12-.387-2.92-1.16-.8-.774-1.2-1.734-1.2-2.88 0-1.094.4-2.04 1.2-2.84.8-.8 1.774-1.2 2.92-1.2Zm-318.46-.04h6.286l-3.304-6.719-2.982 6.719Zm244.032-10.92c-.96 0-1.627.187-2 .56-.347.374-.521 1.08-.521 2.12v7.96c.64.107 1.414.16 2.32.16 1.574 0 2.681-.36 3.321-1.08.666-.746 1-2.066 1-3.96 0-2.133-.36-3.627-1.08-4.48-.72-.853-1.734-1.28-3.04-1.28Z"/></g><defs><clipPath id="a"><path fill="#fff" d="M.749 0h358.488v353.48H.749z"/></clipPath></defs></svg>
